<?xml version="1.0" encoding="utf-8"?>
<!-- Generator: Adobe Illustrator 27.5.0, SVG Export Plug-In . SVG Version: 6.00 Build 0)  -->
<svg version="1.1" id="Layer_1" xmlns="http://www.w3.org/2000/svg" xmlns:xlink="http://www.w3.org/1999/xlink" x="0px" y="0px"
	 viewBox="0 0 111.16 112.39" style="enable-background:new 0 0 111.16 112.39;" xml:space="preserve">
<style type="text/css">
	.st0{fill:url(#path1948_00000078737219752810289910000009018016111633807271_);}
	.st1{fill:url(#path1950_00000088115061968634441360000016818903328944076964_);}
</style>
<linearGradient id="path1948_00000169536728120853402820000015283185433667448744_" gradientUnits="userSpaceOnUse" x1="765.9007" y1="-318.0239" x2="874.917" y2="-411.8178" gradientTransform="matrix(0.5625 0 0 -0.568 -433.5776 -177.4284)">
	<stop  offset="0" style="stop-color:#5C9FD3"/>
	<stop  offset="1" style="stop-color:#316A99"/>
</linearGradient>
<path id="path1948" style="fill:url(#path1948_00000169536728120853402820000015283185433667448744_);" d="M54.92,0
	c-4.58,0.02-8.96,0.41-12.81,1.09c-11.35,2-13.41,6.2-13.41,13.94v10.22h26.81v3.41H28.7H18.64c-7.79,0-14.62,4.68-16.75,13.59
	c-2.46,10.21-2.57,16.59,0,27.25c1.91,7.94,6.46,13.59,14.25,13.59h9.22V70.84c0-8.85,7.66-16.66,16.75-16.66h26.78
	c7.45,0,13.41-6.14,13.41-13.62V15.03c0-7.27-6.13-12.72-13.41-13.94C64.28,0.33,59.5-0.02,54.92,0z M40.42,8.22
	c2.77,0,5.03,2.3,5.03,5.12c0,2.82-2.26,5.09-5.03,5.09c-2.78,0-5.03-2.28-5.03-5.09C35.39,10.52,37.64,8.22,40.42,8.22z"/>
<linearGradient id="path1950_00000172414059455873808200000013892713599983242682_" gradientUnits="userSpaceOnUse" x1="917.0634" y1="-468.5858" x2="878.1338" y2="-413.507" gradientTransform="matrix(0.5625 0 0 -0.568 -433.5776 -177.4284)">
	<stop  offset="0" style="stop-color:#FFD53D"/>
	<stop  offset="1" style="stop-color:#FEE875"/>
</linearGradient>
<path id="path1950" style="fill:url(#path1950_00000172414059455873808200000013892713599983242682_);" d="M85.64,28.66v11.91
	c0,9.23-7.83,17-16.75,17H42.11c-7.34,0-13.41,6.28-13.41,13.62v25.53c0,7.27,6.32,11.54,13.41,13.62c8.49,2.5,16.63,2.95,26.78,0
	c6.75-1.95,13.41-5.89,13.41-13.62V86.5H55.51v-3.41h26.78H95.7c7.79,0,10.7-5.44,13.41-13.59c2.8-8.4,2.68-16.48,0-27.25
	c-1.93-7.76-5.6-13.59-13.41-13.59L85.64,28.66z M70.58,93.31c2.78,0,5.03,2.28,5.03,5.09c0,2.83-2.25,5.12-5.03,5.12
	c-2.77,0-5.03-2.3-5.03-5.12C65.54,95.59,67.81,93.31,70.58,93.31z"/>
</svg>
